# xmcd
#
# Track frame offsets: 
#        150
#        15900
#        28745
#        46828
#        61433
#        74083
#        87253
#        99138
#        122990
#        135533
#
# Disc length: 1954 seconds
#
# Revision: 2
# Processed by: cddbd v1.5.2PL0 Copyright (c) Steve Scherf et al.
# Submitted via: ExactAudioCopyFreeDBPlugin 1.0
#
DISCID=8007a00a
DTITLE=Tyrone Davis - Tyrone Davis Greatest Hits
DYEAR=1989
DGENRE=Soul
TTITLE0=Turning Point
TTITLE1=Come Get This Ring
TTITLE2=Could If I Forget You
TTITLE3=I Wish It Was Me
TTITLE4=Just My Way of Loving You
TTITLE5=Can I Change My Mind
TTITLE6=Turn Back the Hands of Time
TTITLE7=I Had It All the Time
TTITLE8=A Woman Needs to Be Loved
TTITLE9=One Way Ticket
EXTD=YEAR: 1989
EXTT0=
EXTT1=
EXTT2=
EXTT3=
EXTT4=
EXTT5=
EXTT6=
EXTT7=
EXTT8=
EXTT9=
PLAYORDER=
